<?xml version="1.0" encoding="UTF-8"?>
<svg width="700pt" height="700pt" version="1.1" viewBox="0 0 700 700" xmlns="http://www.w3.org/2000/svg">
 <path d="m560 437.5c-12.426 0-23.711 4.5312-32.707 11.762l-175.52-123.99c8.0859-13.246 13.004-28.648 13.004-45.273 0-16.449-4.8477-31.711-12.773-44.852l122.48-81.953c12.734 13.371 30.617 21.805 50.516 21.805 38.605 0 70-31.395 70-70s-31.395-70-70-70-70 31.395-70 70c0 6.0547 1.0156 11.828 2.4688 17.449l-129.41 86.59c-9.8359-7.0508-21.035-12.266-33.285-14.77v-75.008c20.336-7.2461 35-26.496 35-49.262 0-28.945-23.555-52.5-52.5-52.5-28.945 0-52.5 23.555-52.5 52.5 0 22.785 14.664 42.016 35 49.262v75.004c-39.883 8.1211-70 43.469-70 85.715 0 25.516 11.164 48.301 28.648 64.312l-42.297 61.023c-5.9844-1.6445-12.129-2.8164-18.621-2.8164-38.605 0-70 31.395-70 70s31.395 70 70 70 70-31.395 70-70c0-19.461-8.0156-37.066-20.879-49.77l41.93-60.48c9.0469 3.1836 18.602 5.25 28.734 5.25 18.848 0 36.227-6.1406 50.523-16.328l180.91 127.8c-0.78516 3.5742-1.2227 7.2461-1.2227 11.027 0 28.945 23.555 52.5 52.5 52.5s52.5-23.555 52.5-52.5-23.555-52.5-52.5-52.5zm-35-367.5c19.301 0 35 15.699 35 35s-15.699 35-35 35-35-15.699-35-35 15.699-35 35-35zm-367.5 437.5c-19.301 0-35-15.699-35-35s15.699-35 35-35 35 15.699 35 35-15.699 35-35 35zm119.77-455c9.6406 0 17.5 7.8398 17.5 17.5s-7.8594 17.5-17.5 17.5-17.5-7.8398-17.5-17.5 7.8398-17.5 17.5-17.5zm-52.5 227.5c0-28.945 23.555-52.5 52.5-52.5 28.945 0 52.5 23.555 52.5 52.5s-23.555 52.5-52.5 52.5c-28.945 0-52.5-23.555-52.5-52.5zm335.23 227.5c-9.6406 0-17.5-7.8398-17.5-17.5s7.8594-17.5 17.5-17.5 17.5 7.8398 17.5 17.5-7.8594 17.5-17.5 17.5z"/>
</svg>
